<svg id="svg" version="1.1" xmlns="http://www.w3.org/2000/svg" xmlns:xlink="http://www.w3.org/1999/xlink" width="400" height="400" viewBox="0, 0, 400,400"><g id="svgg"><path id="path0" d="M125.100 25.100 C 166.295 25.156,233.705 25.156,274.900 25.100 C 316.095 25.044,282.390 24.998,200.000 24.998 C 117.610 24.998,83.905 25.044,125.100 25.100 M50.000 200.000 L 50.000 350.000 112.400 350.000 L 174.800 350.000 174.800 337.600 L 174.800 325.200 162.400 325.200 L 150.000 325.200 150.000 300.000 L 150.000 274.800 162.352 274.800 L 174.704 274.800 175.001 249.833 C 175.165 236.102,175.165 213.713,175.001 200.081 L 174.704 175.295 149.852 175.000 C 136.183 174.838,113.750 174.772,100.000 174.853 L 75.000 175.000 74.898 137.500 L 74.796 100.000 87.398 100.000 L 100.000 100.000 100.000 87.400 L 100.000 74.800 112.400 74.800 L 124.800 74.800 124.800 62.400 L 124.800 50.000 87.400 50.000 L 50.000 50.000 50.000 200.000 M275.200 62.400 L 275.200 74.800 287.600 74.800 L 300.000 74.800 300.000 87.400 L 300.000 100.000 312.600 100.000 L 325.200 100.000 325.200 150.000 L 325.200 200.000 312.600 200.000 L 300.000 200.000 300.000 212.600 L 300.000 225.200 287.600 225.200 L 275.200 225.200 275.200 237.600 L 275.200 250.000 250.200 250.000 L 225.200 250.000 225.200 237.603 L 225.200 225.206 250.100 225.103 L 275.000 225.000 275.009 212.500 L 275.017 200.000 274.903 212.400 L 274.789 224.800 249.794 224.800 L 224.800 224.800 224.800 231.134 C 224.800 234.618,224.919 245.868,225.065 256.134 L 225.331 274.800 237.665 274.800 L 250.000 274.800 250.000 300.000 L 250.000 325.200 237.600 325.200 L 225.200 325.200 225.200 337.600 L 225.200 350.000 287.600 350.000 L 350.000 350.000 350.000 200.000 L 350.000 50.000 312.600 50.000 L 275.200 50.000 275.200 62.400 M24.998 200.000 C 24.998 282.390,25.044 316.095,25.100 274.900 C 25.156 233.705,25.156 166.295,25.100 125.100 C 25.044 83.905,24.998 117.610,24.998 200.000 M124.982 75.303 C 124.875 75.581,124.838 81.296,124.900 88.004 L 125.012 100.200 125.106 87.700 L 125.200 75.200 199.994 75.200 L 274.789 75.200 274.903 87.600 L 275.017 100.000 275.009 87.500 L 275.000 75.000 200.088 74.899 C 140.043 74.818,125.137 74.898,124.982 75.303 M174.900 125.100 C 188.705 125.158,211.295 125.158,225.100 125.100 C 238.905 125.042,227.610 124.994,200.000 124.994 C 172.390 124.994,161.095 125.042,174.900 125.100 M175.200 162.400 L 175.200 174.800 200.000 174.800 L 224.800 174.800 224.800 162.400 L 224.800 150.000 200.000 150.000 L 175.200 150.000 175.200 162.400 M224.981 175.304 C 224.875 175.581,224.838 181.296,224.900 188.004 L 225.012 200.200 225.106 187.706 L 225.200 175.211 237.700 175.100 L 250.200 174.988 237.687 174.894 C 227.922 174.821,225.132 174.911,224.981 175.304 M150.000 187.600 L 150.000 200.000 162.400 200.000 L 174.800 200.000 174.800 225.000 L 174.800 250.000 162.400 250.000 L 150.000 250.000 150.000 225.000 L 150.000 200.000 125.000 200.000 L 100.000 200.000 100.000 187.600 L 100.000 175.200 125.000 175.200 L 150.000 175.200 150.000 187.600 M174.985 275.297 C 174.879 275.574,174.839 286.870,174.896 300.400 L 175.000 325.000 200.000 325.000 L 225.000 325.000 225.000 300.000 L 225.000 275.000 200.089 274.897 C 180.372 274.815,175.137 274.899,174.985 275.297 M224.800 300.000 L 224.800 324.800 200.000 324.800 L 175.200 324.800 175.200 300.000 L 175.200 275.200 200.000 275.200 L 224.800 275.200 224.800 300.000 " stroke="none" fill="#8c946c" fill-rule="evenodd"></path><path id="path1" d="M50.000 37.600 L 50.000 50.000 37.600 50.000 L 25.200 50.000 25.200 200.000 L 25.200 350.000 37.600 350.000 L 50.000 350.000 50.000 200.000 L 50.000 50.000 200.000 50.000 L 350.000 50.000 350.000 37.600 L 350.000 25.200 200.000 25.200 L 50.000 25.200 50.000 37.600 M125.200 87.600 L 125.200 100.000 112.600 100.000 L 100.000 100.000 100.000 137.400 L 100.000 174.800 125.000 174.800 L 150.000 174.800 150.000 149.800 L 150.000 124.800 200.000 124.800 L 250.000 124.800 250.000 150.000 L 250.000 175.200 237.600 175.200 L 225.200 175.200 225.200 187.600 L 225.200 200.000 200.200 200.000 L 175.200 200.000 175.200 225.000 L 175.200 250.000 200.000 250.000 L 224.800 250.000 224.800 237.400 L 224.800 224.800 249.800 224.800 L 274.800 224.800 274.800 212.400 L 274.800 200.000 287.400 200.000 L 300.000 200.000 300.000 150.000 L 300.000 100.000 287.400 100.000 L 274.800 100.000 274.800 87.600 L 274.800 75.200 200.000 75.200 L 125.200 75.200 125.200 87.600 M175.200 300.000 L 175.200 324.800 200.000 324.800 L 224.800 324.800 224.800 300.000 L 224.800 275.200 200.000 275.200 L 175.200 275.200 175.200 300.000 " stroke="none" fill="#c4d4a4" fill-rule="evenodd"></path><path id="path2" d="M124.800 62.394 L 124.800 74.789 112.300 74.900 L 99.800 75.012 112.500 75.106 L 125.200 75.200 125.200 62.600 C 125.200 55.670,125.110 50.000,125.000 50.000 C 124.890 50.000,124.800 55.577,124.800 62.394 M274.894 62.500 L 274.800 75.200 287.500 75.106 L 300.200 75.012 287.706 74.900 L 275.211 74.789 275.100 62.294 L 274.988 49.800 274.894 62.500 M350.000 200.000 L 350.000 350.000 287.600 350.000 L 225.200 350.000 225.200 337.606 L 225.200 325.211 237.700 325.100 L 250.200 324.988 237.500 324.894 L 224.800 324.800 224.800 337.400 L 224.800 350.000 200.000 350.000 L 175.200 350.000 175.200 337.400 L 175.200 324.800 162.500 324.894 L 149.800 324.988 162.300 325.100 L 174.800 325.211 174.800 337.606 L 174.800 350.000 112.400 350.000 L 50.000 350.000 50.000 362.400 L 50.000 374.800 200.000 374.800 L 350.000 374.800 350.000 362.400 L 350.000 350.000 362.400 350.000 L 374.800 350.000 374.800 200.000 L 374.800 50.000 362.400 50.000 L 350.000 50.000 350.000 200.000 M74.997 137.600 L 75.000 175.000 87.500 175.009 L 100.000 175.017 87.602 174.903 L 75.204 174.789 75.099 137.494 L 74.994 100.200 74.997 137.600 M324.994 150.000 C 324.994 177.610,325.042 188.905,325.100 175.100 C 325.158 161.295,325.158 138.705,325.100 124.900 C 325.042 111.095,324.994 122.390,324.994 150.000 M174.894 162.294 L 174.800 174.789 162.300 174.900 L 149.800 175.012 162.294 175.106 L 174.789 175.200 174.900 187.700 L 175.012 200.200 175.106 187.700 L 175.200 175.200 200.200 175.200 L 225.200 175.200 225.106 162.500 L 225.012 149.800 224.900 162.300 L 224.789 174.800 200.000 174.800 L 175.211 174.800 175.100 162.300 L 174.988 149.800 174.894 162.294 M274.894 237.500 L 274.988 250.200 275.100 237.706 L 275.211 225.211 287.706 225.100 L 300.200 224.988 287.500 224.894 L 274.800 224.800 274.894 237.500 M174.800 262.394 L 174.800 274.789 162.300 274.900 L 149.800 275.012 162.500 275.106 L 175.200 275.200 175.200 262.600 C 175.200 255.670,175.110 250.000,175.000 250.000 C 174.890 250.000,174.800 255.577,174.800 262.394 M224.894 262.500 L 224.800 275.200 237.500 275.106 L 250.200 275.012 237.706 274.900 L 225.211 274.789 225.100 262.294 L 224.988 249.800 224.894 262.500 " stroke="none" fill="#4c543c" fill-rule="evenodd"></path><path id="path3" d="M24.800 12.400 L 24.800 24.800 12.400 24.800 L 0.000 24.800 0.000 200.000 L 0.000 375.200 12.400 375.200 L 24.800 375.200 24.800 387.600 L 24.800 400.000 200.000 400.000 L 375.200 400.000 375.200 387.600 L 375.200 375.200 387.600 375.200 L 400.000 375.200 400.000 200.000 L 400.000 24.800 387.600 24.800 L 375.200 24.800 375.200 12.400 L 375.200 0.000 200.000 0.000 L 24.800 0.000 24.800 12.400 M350.000 37.400 L 350.000 50.000 362.400 50.000 L 374.800 50.000 374.800 200.000 L 374.800 350.000 362.400 350.000 L 350.000 350.000 350.000 362.400 L 350.000 374.800 200.000 374.800 L 50.000 374.800 50.000 362.400 L 50.000 350.000 37.400 350.000 L 24.800 350.000 24.800 200.000 L 24.800 50.000 37.400 50.000 L 50.000 50.000 50.000 37.400 L 50.000 24.800 200.000 24.800 L 350.000 24.800 350.000 37.400 M125.200 62.400 L 125.200 74.800 200.000 74.800 L 274.800 74.800 274.800 62.400 L 274.800 50.000 200.000 50.000 L 125.200 50.000 125.200 62.400 M100.000 87.600 L 100.000 100.000 87.600 100.000 L 75.200 100.000 75.200 137.400 L 75.200 174.800 87.600 174.800 L 100.000 174.800 100.000 137.400 L 100.000 100.000 112.400 100.000 L 124.800 100.000 124.800 87.600 L 124.800 75.200 112.400 75.200 L 100.000 75.200 100.000 87.600 M275.200 87.600 L 275.200 100.000 287.600 100.000 L 300.000 100.000 300.000 150.000 L 300.000 200.000 287.600 200.000 L 275.200 200.000 275.200 212.400 L 275.200 224.800 287.600 224.800 L 300.000 224.800 300.000 212.400 L 300.000 200.000 312.400 200.000 L 324.800 200.000 324.800 150.000 L 324.800 100.000 312.400 100.000 L 300.000 100.000 300.000 87.600 L 300.000 75.200 287.600 75.200 L 275.200 75.200 275.200 87.600 M150.000 150.000 L 150.000 174.800 162.400 174.800 L 174.800 174.800 174.800 162.400 L 174.800 150.000 200.000 150.000 L 225.200 150.000 225.200 162.400 L 225.200 174.800 237.600 174.800 L 250.000 174.800 250.000 150.000 L 250.000 125.200 200.000 125.200 L 150.000 125.200 150.000 150.000 M100.000 187.600 L 100.000 200.000 125.000 200.000 L 150.000 200.000 150.000 225.000 L 150.000 250.000 162.400 250.000 L 174.800 250.000 174.800 225.000 L 174.800 200.000 162.400 200.000 L 150.000 200.000 150.000 187.600 L 150.000 175.200 125.000 175.200 L 100.000 175.200 100.000 187.600 M175.200 187.600 L 175.200 200.000 200.000 200.000 L 224.800 200.000 224.800 187.600 L 224.800 175.200 200.000 175.200 L 175.200 175.200 175.200 187.600 M225.200 237.600 L 225.200 250.000 250.000 250.000 L 274.800 250.000 274.800 237.600 L 274.800 225.200 250.000 225.200 L 225.200 225.200 225.200 237.600 M175.200 262.400 L 175.200 274.800 200.000 274.800 L 224.800 274.800 224.800 262.400 L 224.800 250.000 200.000 250.000 L 175.200 250.000 175.200 262.400 M150.000 300.000 L 150.000 324.800 162.400 324.800 L 174.800 324.800 174.800 300.000 L 174.800 275.200 162.400 275.200 L 150.000 275.200 150.000 300.000 M225.200 300.000 L 225.200 324.800 237.600 324.800 L 250.000 324.800 250.000 300.000 L 250.000 275.200 237.600 275.200 L 225.200 275.200 225.200 300.000 M175.200 337.600 L 175.200 350.000 200.000 350.000 L 224.800 350.000 224.800 337.600 L 224.800 325.200 200.000 325.200 L 175.200 325.200 175.200 337.600 " stroke="none" fill="#1c1c1c" fill-rule="evenodd"></path><path id="path4" d="" stroke="none" fill="#8cb844" fill-rule="evenodd"></path></g></svg>