<svg id="svg" version="1.1" xmlns="http://www.w3.org/2000/svg" xmlns:xlink="http://www.w3.org/1999/xlink" width="400" height="400" viewBox="0, 0, 400,400"><g id="svgg"><path id="path0" d="M124.900 25.100 C 166.205 25.156,233.795 25.156,275.100 25.100 C 316.405 25.044,282.610 24.998,200.000 24.998 C 117.390 24.998,83.595 25.044,124.900 25.100 M24.998 200.000 C 24.998 282.610,25.044 316.405,25.100 275.100 C 25.156 233.795,25.156 166.205,25.100 124.900 C 25.044 83.595,24.998 117.390,24.998 200.000 M324.800 62.533 L 324.800 75.200 200.000 75.200 L 75.200 75.200 75.200 199.994 L 75.200 324.789 62.700 324.932 C 55.825 325.011,58.660 325.014,69.000 324.938 C 79.340 324.863,141.111 324.801,206.269 324.800 L 324.737 324.800 324.869 187.500 C 324.942 111.985,324.956 50.125,324.901 50.033 C 324.845 49.942,324.800 55.567,324.800 62.533 M125.106 137.500 L 125.211 150.000 137.606 150.000 L 150.000 150.000 150.000 175.000 L 150.000 200.000 162.600 200.000 L 175.200 200.000 175.200 225.000 L 175.200 250.000 162.600 250.000 L 150.000 250.000 150.000 225.000 L 150.000 200.000 137.400 200.000 L 124.800 200.000 124.800 175.000 L 124.800 150.000 112.400 150.000 L 100.000 150.000 100.000 137.394 L 100.000 124.789 112.500 124.894 L 125.000 125.000 125.106 137.500 M300.000 137.400 L 300.000 150.000 287.600 150.000 L 275.200 150.000 275.200 175.000 L 275.200 200.000 262.600 200.000 L 250.000 200.000 250.000 225.000 L 250.000 250.000 237.400 250.000 L 224.800 250.000 224.800 225.000 L 224.800 200.000 237.400 200.000 L 250.000 200.000 250.000 175.000 L 250.000 150.000 262.400 150.000 L 274.800 150.000 274.800 137.667 C 274.800 130.883,274.920 125.213,275.067 125.067 C 275.213 124.920,280.883 124.800,287.667 124.800 L 300.000 124.800 300.000 137.400 " stroke="none" fill="#4c543c" fill-rule="evenodd"></path><path id="path1" d="M50.000 37.600 L 50.000 50.000 37.600 50.000 L 25.200 50.000 25.200 200.000 L 25.200 350.000 37.600 350.000 L 50.000 350.000 50.000 337.400 L 50.000 324.800 62.334 324.800 L 74.669 324.800 74.920 200.148 C 75.058 131.589,75.266 75.400,75.383 75.284 C 75.500 75.167,131.666 74.985,200.198 74.880 L 324.800 74.688 324.800 62.344 L 324.800 50.000 337.400 50.000 L 350.000 50.000 350.000 37.600 L 350.000 25.200 200.000 25.200 L 50.000 25.200 50.000 37.600 M124.800 62.400 L 124.800 74.800 100.000 74.800 L 75.200 74.800 75.200 62.400 L 75.200 50.000 100.000 50.000 L 124.800 50.000 124.800 62.400 M74.800 112.600 L 74.800 150.000 62.400 150.000 L 50.000 150.000 50.000 112.600 L 50.000 75.200 62.400 75.200 L 74.800 75.200 74.800 112.600 " stroke="none" fill="#8c946c" fill-rule="evenodd"></path><path id="path2" d="M75.200 62.400 L 75.200 74.800 100.000 74.800 L 124.800 74.800 124.800 62.400 L 124.800 50.000 100.000 50.000 L 75.200 50.000 75.200 62.400 M50.000 112.600 L 50.000 150.000 62.400 150.000 L 74.800 150.000 74.800 112.600 L 74.800 75.200 62.400 75.200 L 50.000 75.200 50.000 112.600 " stroke="none" fill="#c4d4a4" fill-rule="evenodd"></path><path id="path3" d="M24.800 12.400 L 24.800 24.800 12.400 24.800 L 0.000 24.800 0.000 200.000 L 0.000 375.200 12.400 375.200 L 24.800 375.200 24.800 387.600 L 24.800 400.000 200.000 400.000 L 375.200 400.000 375.200 387.600 L 375.200 375.200 387.600 375.200 L 400.000 375.200 400.000 200.000 L 400.000 24.800 387.600 24.800 L 375.200 24.800 375.200 12.400 L 375.200 0.000 200.000 0.000 L 24.800 0.000 24.800 12.400 M350.000 37.400 L 350.000 50.000 337.665 50.000 L 325.331 50.000 325.066 68.900 C 324.920 79.295,324.801 141.125,324.800 206.300 L 324.800 324.800 206.300 324.800 C 141.125 324.801,79.295 324.920,68.900 325.066 L 50.000 325.331 50.000 337.665 L 50.000 350.000 37.400 350.000 L 24.800 350.000 24.800 200.000 L 24.800 50.000 37.400 50.000 L 50.000 50.000 50.000 37.400 L 50.000 24.800 200.000 24.800 L 350.000 24.800 350.000 37.400 M100.000 137.394 L 100.000 150.000 112.400 150.000 L 124.800 150.000 124.800 175.000 L 124.800 200.000 137.400 200.000 L 150.000 200.000 150.000 225.000 L 150.000 250.000 162.600 250.000 L 175.200 250.000 175.200 225.000 L 175.200 200.000 162.600 200.000 L 150.000 200.000 150.000 175.000 L 150.000 150.000 137.606 150.000 L 125.211 150.000 125.106 137.500 L 125.000 125.000 112.500 124.894 L 100.000 124.789 100.000 137.394 M275.067 125.067 C 274.920 125.213,274.800 130.883,274.800 137.667 L 274.800 150.000 262.400 150.000 L 250.000 150.000 250.000 175.000 L 250.000 200.000 237.400 200.000 L 224.800 200.000 224.800 225.000 L 224.800 250.000 237.400 250.000 L 250.000 250.000 250.000 225.000 L 250.000 200.000 262.600 200.000 L 275.200 200.000 275.200 175.000 L 275.200 150.000 287.600 150.000 L 300.000 150.000 300.000 137.400 L 300.000 124.800 287.667 124.800 C 280.883 124.800,275.213 124.920,275.067 125.067 " stroke="none" fill="#1c1c1c" fill-rule="evenodd"></path><path id="path4" d="M175.132 75.100 C 202.705 75.157,247.705 75.157,275.132 75.100 C 302.559 75.043,280.000 74.997,225.000 74.997 C 170.000 74.997,147.559 75.043,175.132 75.100 M74.996 237.400 C 74.996 285.580,75.043 305.349,75.100 281.332 C 75.157 257.315,75.157 217.895,75.100 193.732 C 75.043 169.569,74.996 189.220,74.996 237.400 " stroke="none" fill="#507870" fill-rule="evenodd"></path></g></svg>