<svg id="svg" version="1.1" xmlns="http://www.w3.org/2000/svg" xmlns:xlink="http://www.w3.org/1999/xlink" width="400" height="457.14285714285717" viewBox="0, 0, 400,457.14285714285717"><g id="svgg"><path id="path0" d="M114.000 14.200 L 114.000 28.400 85.400 28.400 L 56.800 28.400 56.800 42.600 L 56.800 56.800 42.600 56.800 L 28.400 56.800 28.400 85.400 L 28.400 114.000 14.200 114.000 L 0.000 114.000 0.000 228.000 L 0.000 342.000 14.200 342.000 L 28.400 342.000 28.400 370.600 L 28.400 399.200 42.700 399.200 L 57.000 399.200 56.885 413.400 L 56.771 427.600 85.485 427.600 L 114.200 427.600 114.086 441.900 L 113.972 456.200 200.000 456.200 L 286.028 456.200 285.914 441.900 L 285.800 427.600 314.505 427.600 L 343.210 427.600 343.195 399.100 L 343.179 370.600 357.390 370.600 L 371.600 370.600 371.600 342.100 L 371.600 313.600 385.800 313.600 L 400.000 313.600 400.000 228.200 L 400.000 142.800 385.800 142.800 L 371.600 142.800 371.600 114.000 L 371.600 85.200 357.400 85.200 L 343.200 85.200 343.200 56.800 L 343.200 28.400 314.600 28.400 L 286.000 28.400 286.000 14.200 L 286.000 0.000 200.000 0.000 L 114.000 0.000 114.000 14.200 M228.800 42.700 L 228.800 57.000 257.224 57.000 L 285.649 57.000 285.724 71.200 L 285.800 85.400 300.100 85.505 L 314.400 85.610 314.400 114.105 L 314.400 142.600 328.600 142.485 L 342.800 142.371 342.800 228.185 L 342.800 314.000 328.600 314.000 L 314.400 314.000 314.400 342.600 L 314.400 371.200 299.990 371.200 L 285.581 371.200 285.600 384.900 C 285.611 392.435,285.615 398.825,285.610 399.100 C 285.602 399.495,279.649 399.600,257.205 399.600 L 228.810 399.600 228.705 413.900 L 228.600 428.200 185.800 428.200 L 143.000 428.200 142.895 413.900 L 142.790 399.600 114.195 399.600 L 85.600 399.600 85.600 385.400 L 85.600 371.200 71.403 371.200 L 57.205 371.200 57.103 342.700 L 57.000 314.200 42.699 314.095 L 28.398 313.990 28.499 228.295 L 28.600 142.600 42.900 142.495 L 57.200 142.390 57.200 113.995 L 57.200 85.600 71.400 85.600 L 85.600 85.600 85.600 71.200 L 85.600 56.800 114.200 56.800 L 142.800 56.800 142.800 42.600 L 142.800 28.400 185.800 28.400 L 228.800 28.400 228.800 42.700 M228.701 214.095 L 228.600 342.600 200.200 342.696 C 184.580 342.749,165.273 342.794,157.295 342.796 L 142.790 342.800 142.895 356.700 L 143.000 370.600 200.000 370.600 L 257.000 370.600 257.000 228.200 L 257.000 85.800 242.901 85.695 L 228.801 85.590 228.701 214.095 " stroke="none" fill="#1a1a1a" fill-rule="evenodd"></path><path id="path1" d="M164.269 28.700 C 175.967 28.759,195.227 28.759,207.069 28.700 C 218.911 28.641,209.340 28.593,185.800 28.593 C 162.260 28.593,152.571 28.641,164.269 28.700 M142.895 57.300 L 142.800 85.600 114.405 85.600 L 86.010 85.600 85.900 71.300 C 85.839 63.435,85.747 76.305,85.695 99.900 L 85.600 142.800 71.400 142.800 L 57.200 142.800 57.200 228.195 L 57.200 313.590 42.900 313.700 C 35.035 313.761,41.424 313.853,57.098 313.905 L 85.596 314.000 85.698 356.700 L 85.800 399.400 114.300 399.254 L 142.800 399.109 142.800 413.351 L 142.800 427.593 185.595 427.696 L 228.390 427.800 228.495 413.600 L 228.600 399.400 257.100 399.297 L 285.600 399.195 285.600 384.997 L 285.600 370.800 299.797 370.800 L 313.995 370.800 314.097 342.300 L 314.200 313.800 328.500 313.695 L 342.800 313.590 342.800 228.195 L 342.800 142.800 328.400 142.800 L 314.000 142.800 314.000 114.200 L 314.000 85.600 299.800 85.600 L 285.600 85.600 285.600 71.400 L 285.600 57.200 214.405 57.200 L 143.210 57.200 143.100 43.100 C 143.039 35.345,142.947 41.735,142.895 57.300 M257.200 228.400 L 257.200 371.200 200.000 371.200 L 142.800 371.200 142.800 356.848 L 142.800 342.497 171.700 342.219 C 187.595 342.066,206.855 341.999,214.501 342.070 L 228.402 342.200 228.301 228.200 L 228.200 114.200 199.900 114.097 L 171.600 113.995 171.600 227.997 L 171.600 342.000 157.200 342.000 L 142.800 342.000 142.800 213.800 L 142.800 85.600 200.000 85.600 L 257.200 85.600 257.200 228.400 M28.596 228.000 C 28.596 274.970,28.643 294.185,28.700 270.700 C 28.757 247.215,28.757 208.785,28.700 185.300 C 28.643 161.815,28.596 181.030,28.596 228.000 M114.305 385.100 L 114.410 399.200 100.205 399.200 L 86.000 399.200 86.000 384.995 L 86.000 370.790 100.100 370.895 L 114.200 371.000 114.305 385.100 M349.874 371.499 C 353.655 371.565,359.955 371.565,363.874 371.499 C 367.793 371.434,364.700 371.380,357.000 371.380 C 349.300 371.380,346.093 371.434,349.874 371.499 M71.729 428.300 C 79.611 428.361,92.391 428.361,100.129 428.300 C 107.868 428.239,101.420 428.189,85.800 428.190 C 70.180 428.190,63.848 428.239,71.729 428.300 M300.129 428.300 C 308.011 428.361,320.791 428.361,328.529 428.300 C 336.268 428.239,329.820 428.189,314.200 428.190 C 298.580 428.190,292.248 428.239,300.129 428.300 M157.100 456.700 C 180.695 456.757,219.305 456.757,242.900 456.700 C 266.495 456.643,247.190 456.596,200.000 456.596 C 152.810 456.596,133.505 456.643,157.100 456.700 " stroke="none" fill="#8c936b" fill-rule="evenodd"></path><path id="path2" d="M143.024 29.240 C 143.106 29.371,143.192 35.716,143.215 43.340 L 143.258 57.200 185.729 57.200 L 228.200 57.200 228.090 43.204 L 227.980 29.207 185.428 29.104 C 162.025 29.047,142.943 29.108,143.024 29.240 M86.310 71.600 L 86.200 85.600 114.500 85.600 L 142.800 85.600 142.800 213.800 L 142.800 342.000 157.200 342.000 L 171.600 342.000 171.600 227.995 L 171.600 113.989 199.900 114.095 L 228.200 114.200 228.200 99.900 L 228.200 85.600 185.500 85.600 L 142.800 85.600 142.800 71.600 L 142.800 57.600 114.610 57.600 L 86.420 57.600 86.310 71.600 M57.600 86.000 C 58.000 86.258,58.033 86.390,57.700 86.394 C 57.305 86.399,57.200 92.310,57.200 114.600 L 57.200 142.800 43.202 142.800 L 29.204 142.800 29.102 228.200 L 29.000 313.600 43.100 313.600 L 57.200 313.600 57.200 228.200 L 57.200 142.800 71.405 142.800 L 85.610 142.800 85.595 114.200 L 85.579 85.600 71.290 85.606 C 61.916 85.610,57.206 85.746,57.600 86.000 M378.900 142.699 C 382.805 142.765,389.195 142.765,393.100 142.699 C 397.005 142.634,393.810 142.580,386.000 142.580 C 378.190 142.580,374.995 142.634,378.900 142.699 M57.205 342.000 C 57.193 364.289,57.293 370.001,57.695 370.006 C 58.038 370.010,58.008 370.136,57.600 370.400 C 57.206 370.654,61.916 370.790,71.290 370.794 L 85.579 370.800 85.595 342.400 L 85.610 314.000 71.416 314.000 L 57.221 314.000 57.205 342.000 M86.200 384.995 L 86.200 399.200 100.305 399.200 L 114.410 399.200 114.305 385.100 L 114.200 371.000 100.200 370.895 L 86.200 370.790 86.200 384.995 " stroke="none" fill="#c4d4a4" fill-rule="evenodd"></path><path id="path3" d="M185.495 29.100 L 227.990 29.204 228.100 43.102 L 228.211 57.000 228.305 42.900 L 228.400 28.800 185.700 28.898 L 143.000 28.996 185.495 29.100 M0.400 52.200 C 0.400 52.567,0.594 52.802,0.830 52.723 C 1.386 52.538,1.386 51.862,0.830 51.677 C 0.594 51.598,0.400 51.833,0.400 52.200 M86.095 71.300 L 86.189 85.400 86.300 71.503 L 86.410 57.605 114.705 57.500 L 143.000 57.395 114.500 57.297 L 86.000 57.200 86.095 71.300 M228.180 100.000 C 228.180 107.810,228.234 111.005,228.299 107.100 C 228.365 103.195,228.365 96.805,228.299 92.900 C 228.234 88.995,228.180 92.190,228.180 100.000 M378.726 142.300 C 382.755 142.365,389.235 142.365,393.126 142.299 C 397.017 142.234,393.720 142.180,385.800 142.181 C 377.880 142.181,374.697 142.234,378.726 142.300 M28.996 228.000 C 28.996 274.970,29.043 294.185,29.100 270.700 C 29.157 247.215,29.157 208.785,29.100 185.300 C 29.043 161.815,28.996 181.030,28.996 228.000 M86.180 385.000 C 86.180 392.700,86.234 395.793,86.299 391.874 C 86.365 387.955,86.365 381.655,86.299 377.874 C 86.234 374.093,86.180 377.300,86.180 385.000 " stroke="none" fill="#dce4b4" fill-rule="evenodd"></path><path id="path4" d="M228.581 42.800 C 228.581 50.830,228.634 54.115,228.699 50.100 C 228.765 46.085,228.765 39.515,228.699 35.500 C 228.634 31.485,228.581 34.770,228.581 42.800 M99.929 57.100 C 107.921 57.160,120.881 57.160,128.729 57.100 C 136.578 57.039,130.040 56.990,114.200 56.990 C 98.360 56.990,91.938 57.039,99.929 57.100 M257.178 57.099 C 279.083 57.182,285.435 57.316,285.709 57.703 C 285.968 58.069,286.018 58.041,285.897 57.600 C 285.754 57.074,282.240 56.999,257.367 56.996 L 229.000 56.992 257.178 57.099 M228.499 213.800 L 228.400 342.200 205.900 342.105 C 193.525 342.053,174.220 342.158,163.000 342.339 C 143.866 342.647,145.263 342.671,185.513 342.733 C 219.520 342.786,228.465 342.696,228.615 342.300 C 228.719 342.025,228.758 284.110,228.702 213.600 L 228.599 85.400 228.499 213.800 M314.190 114.200 C 314.190 130.040,314.239 136.462,314.300 128.471 C 314.360 120.479,314.360 107.519,314.300 99.671 C 314.239 91.822,314.190 98.360,314.190 114.200 M35.926 142.700 C 39.955 142.765,46.435 142.765,50.326 142.699 C 54.217 142.634,50.920 142.580,43.000 142.581 C 35.080 142.581,31.897 142.634,35.926 142.700 M321.874 142.699 C 325.655 142.765,331.955 142.765,335.874 142.699 C 339.793 142.634,336.700 142.580,329.000 142.580 C 321.300 142.580,318.093 142.634,321.874 142.699 M314.267 313.867 C 314.120 314.013,314.000 326.881,314.000 342.462 L 314.000 370.790 299.700 370.900 L 285.400 371.010 299.900 371.105 L 314.400 371.200 314.400 342.605 L 314.400 314.010 328.700 313.900 L 343.000 313.790 328.767 313.695 C 320.938 313.643,314.413 313.720,314.267 313.867 M371.600 314.000 C 371.600 314.259,376.600 314.400,385.800 314.400 C 395.000 314.400,400.000 314.259,400.000 314.000 C 400.000 313.741,395.000 313.600,385.800 313.600 C 376.600 313.600,371.600 313.741,371.600 314.000 M0.000 342.400 C 0.000 342.659,5.000 342.800,14.200 342.800 C 23.400 342.800,28.400 342.659,28.400 342.400 C 28.400 342.141,23.400 342.000,14.200 342.000 C 5.000 342.000,0.000 342.141,0.000 342.400 M142.800 370.900 C 142.800 371.065,168.540 371.200,200.000 371.200 C 231.460 371.200,257.200 371.065,257.200 370.900 C 257.200 370.735,231.460 370.600,200.000 370.600 C 168.540 370.600,142.800 370.735,142.800 370.900 M343.006 370.790 C 342.791 371.139,371.057 371.621,371.588 371.278 C 371.692 371.211,371.512 370.989,371.188 370.784 C 370.383 370.275,343.321 370.281,343.006 370.790 M64.326 371.100 C 68.355 371.165,74.835 371.165,78.726 371.099 C 82.617 371.034,79.320 370.980,71.400 370.981 C 63.480 370.981,60.297 371.034,64.326 371.100 M28.400 399.600 C 28.400 399.859,33.333 400.000,42.400 400.000 C 51.467 400.000,56.400 399.859,56.400 399.600 C 56.400 399.341,51.467 399.200,42.400 399.200 C 33.333 399.200,28.400 399.341,28.400 399.600 M121.526 399.500 C 125.555 399.565,132.035 399.565,135.926 399.499 C 139.817 399.434,136.520 399.380,128.600 399.381 C 120.680 399.381,117.497 399.434,121.526 399.500 M228.667 399.467 C 228.520 399.613,228.400 406.048,228.400 413.767 L 228.400 427.800 185.516 427.696 C 156.545 427.626,142.764 427.724,143.038 427.998 C 143.308 428.268,157.655 428.370,186.022 428.302 L 228.600 428.200 228.705 413.903 L 228.810 399.605 257.305 399.500 L 285.800 399.395 257.367 399.297 C 241.728 399.244,228.813 399.320,228.667 399.467 M56.800 427.900 C 56.800 428.065,69.760 428.200,85.600 428.200 C 101.440 428.200,114.400 428.065,114.400 427.900 C 114.400 427.735,101.440 427.600,85.600 427.600 C 69.760 427.600,56.800 427.735,56.800 427.900 M285.600 427.900 C 285.600 428.065,298.560 428.200,314.400 428.200 C 330.240 428.200,343.200 428.065,343.200 427.900 C 343.200 427.735,330.240 427.600,314.400 427.600 C 298.560 427.600,285.600 427.735,285.600 427.900 M157.300 456.300 C 180.785 456.357,219.215 456.357,242.700 456.300 C 266.185 456.243,246.970 456.196,200.000 456.196 C 153.030 456.196,133.815 456.243,157.300 456.300 " stroke="none" fill="#5c624f" fill-rule="evenodd"></path></g></svg>